<?xml version="1.0" encoding="UTF-8" standalone="no"?>
<!-- Created with Inkscape (http://www.inkscape.org/) -->

<svg
   xmlns:dc="http://purl.org/dc/elements/1.1/"
   xmlns:cc="http://creativecommons.org/ns#"
   xmlns:rdf="http://www.w3.org/1999/02/22-rdf-syntax-ns#"
   xmlns:svg="http://www.w3.org/2000/svg"
   xmlns="http://www.w3.org/2000/svg"
   xmlns:xlink="http://www.w3.org/1999/xlink"
   xmlns:sodipodi="http://sodipodi.sourceforge.net/DTD/sodipodi-0.dtd"
   xmlns:inkscape="http://www.inkscape.org/namespaces/inkscape"
   id="svg2"
   version="1.1"
   inkscape:version="0.48.3.1 r9886"
   width="636.59375"
   height="561.75836"
   sodipodi:docname="Bundesliga-Logo-2010-SVG.svg">
  <metadata
     id="metadata8">
    <rdf:RDF>
      <cc:Work
         rdf:about="">
        <dc:format>image/svg+xml</dc:format>
        <dc:type
           rdf:resource="http://purl.org/dc/dcmitype/StillImage" />
        <dc:title />
      </cc:Work>
    </rdf:RDF>
  </metadata>
  <defs
     id="defs6">
    <linearGradient
       id="linearGradient3817">
      <stop
         id="stop3819"
         offset="0"
         style="stop-color:#580000;stop-opacity:0.86274511;" />
      <stop
         style="stop-color:#740500;stop-opacity:0.51372552;"
         offset="0.54747581"
         id="stop3821" />
      <stop
         id="stop3823"
         offset="0.81537783"
         style="stop-color:#800700;stop-opacity:0.25490196;" />
      <stop
         id="stop3825"
         offset="1"
         style="stop-color:#8c0a00;stop-opacity:0;" />
    </linearGradient>
    <linearGradient
       id="linearGradient4197">
      <stop
         style="stop-color:#ffffff;stop-opacity:1;"
         offset="0"
         id="stop4199" />
      <stop
         id="stop3812"
         offset="0.30000001"
         style="stop-color:#ffffff;stop-opacity:0.49803922;" />
      <stop
         style="stop-color:#ffffff;stop-opacity:0;"
         offset="1"
         id="stop4201" />
    </linearGradient>
    <linearGradient
       id="linearGradient4175">
      <stop
         style="stop-color:#cd090d;stop-opacity:1;"
         offset="0"
         id="stop4177" />
      <stop
         style="stop-color:#f39272;stop-opacity:1;"
         offset="1"
         id="stop4179" />
    </linearGradient>
    <linearGradient
       inkscape:collect="always"
       xlink:href="#linearGradient4197"
       id="linearGradient4203"
       x1="285.20126"
       y1="49.936466"
       x2="285.20126"
       y2="69.959213"
       gradientUnits="userSpaceOnUse"
       gradientTransform="translate(3.18948,12.274397)" />
    <linearGradient
       inkscape:collect="always"
       xlink:href="#linearGradient4175-7"
       id="linearGradient4181-1"
       x1="88.314568"
       y1="142.17674"
       x2="276.6991"
       y2="299.00671"
       gradientUnits="userSpaceOnUse"
       gradientTransform="translate(643.31343,-63.602487)" />
    <linearGradient
       id="linearGradient4175-7">
      <stop
         style="stop-color:#8e0902;stop-opacity:1;"
         offset="0"
         id="stop4177-4" />
      <stop
         style="stop-color:#e2080e;stop-opacity:1;"
         offset="1"
         id="stop4179-0" />
    </linearGradient>
    <linearGradient
       inkscape:collect="always"
       xlink:href="#linearGradient4175-7-8"
       id="linearGradient4274-8"
       gradientUnits="userSpaceOnUse"
       gradientTransform="translate(676.0391,-51.465695)"
       x1="135.5898"
       y1="395.4209"
       x2="361.4838"
       y2="395.4209" />
    <linearGradient
       id="linearGradient4175-7-8">
      <stop
         style="stop-color:#580000;stop-opacity:0.86274511;"
         offset="0"
         id="stop4177-4-2" />
      <stop
         id="stop3814"
         offset="0.7000773"
         style="stop-color:#740500;stop-opacity:0.51372552;" />
      <stop
         style="stop-color:#800700;stop-opacity:0.25490196;"
         offset="0.90446907"
         id="stop3816" />
      <stop
         style="stop-color:#8c0a00;stop-opacity:0;"
         offset="1"
         id="stop4179-0-4" />
    </linearGradient>
    <linearGradient
       inkscape:collect="always"
       xlink:href="#linearGradient3817"
       id="linearGradient4993"
       gradientUnits="userSpaceOnUse"
       gradientTransform="translate(81.41581,-39.399326)"
       x1="331.91821"
       y1="457.24771"
       x2="331.91821"
       y2="425.50018" />
    <linearGradient
       inkscape:collect="always"
       xlink:href="#linearGradient4175"
       id="linearGradient5007"
       gradientUnits="userSpaceOnUse"
       gradientTransform="translate(81.42269,-39.42029)"
       x1="361.31458"
       y1="96.176743"
       x2="493.6991"
       y2="160.00671" />
    <linearGradient
       inkscape:collect="always"
       xlink:href="#linearGradient4175-7"
       id="linearGradient5015"
       gradientUnits="userSpaceOnUse"
       gradientTransform="translate(81.40867,-39.391393)"
       x1="-29.472874"
       y1="395.4209"
       x2="301.58664"
       y2="395.4209" />
    <radialGradient
       inkscape:collect="always"
       xlink:href="#linearGradient5246"
       id="radialGradient5254"
       cx="413.125"
       cy="493.48718"
       fx="413.125"
       fy="493.48718"
       r="15.125"
       gradientUnits="userSpaceOnUse" />
    <linearGradient
       id="linearGradient5246">
      <stop
         style="stop-color:#ffffff;stop-opacity:1;"
         offset="0"
         id="stop5248" />
      <stop
         style="stop-color:#ffffff;stop-opacity:0;"
         offset="1"
         id="stop5250" />
    </linearGradient>
    <linearGradient
       inkscape:collect="always"
       xlink:href="#linearGradient5264"
       id="linearGradient5270"
       x1="487.96573"
       y1="409.71228"
       x2="486.58194"
       y2="424.71228"
       gradientUnits="userSpaceOnUse"
       gradientTransform="translate(87.932258,-268.70316)" />
    <linearGradient
       id="linearGradient5264">
      <stop
         style="stop-color:#ffffff;stop-opacity:0.765625;"
         offset="0"
         id="stop5266" />
      <stop
         style="stop-color:#aaaaaa;stop-opacity:0.47486034;"
         offset="1"
         id="stop5268" />
    </linearGradient>
    <radialGradient
       gradientTransform="translate(87.682258,-268.70316)"
       inkscape:collect="always"
       xlink:href="#linearGradient5256"
       id="radialGradient5262"
       cx="475.88184"
       cy="431.51196"
       fx="475.88184"
       fy="431.51196"
       r="28.703125"
       gradientUnits="userSpaceOnUse" />
    <linearGradient
       id="linearGradient5256">
      <stop
         style="stop-color:#efefef;stop-opacity:1;"
         offset="0"
         id="stop5258" />
      <stop
         style="stop-color:#424242;stop-opacity:1;"
         offset="1"
         id="stop5260" />
    </linearGradient>
    <radialGradient
       inkscape:collect="always"
       xlink:href="#linearGradient5224"
       id="radialGradient5232"
       cx="470.80954"
       cy="426.02725"
       fx="470.80954"
       fy="426.02725"
       r="27.8125"
       gradientTransform="matrix(-1.3579048,1.3096266,-1.2541702,-1.3004037,1646.0263,355.73641)"
       gradientUnits="userSpaceOnUse" />
    <linearGradient
       id="linearGradient5224">
      <stop
         style="stop-color:#ffffff;stop-opacity:1;"
         offset="0"
         id="stop5226" />
      <stop
         style="stop-color:#000000;stop-opacity:1;"
         offset="1"
         id="stop5228" />
    </linearGradient>
    <radialGradient
       r="27.8125"
       fy="426.02725"
       fx="470.80954"
       cy="426.02725"
       cx="470.80954"
       gradientTransform="matrix(-1.3579048,1.3096266,-1.2541702,-1.3004037,1733.7086,87.033251)"
       gradientUnits="userSpaceOnUse"
       id="radialGradient5307"
       xlink:href="#linearGradient5224"
       inkscape:collect="always" />
    <radialGradient
       inkscape:collect="always"
       xlink:href="#linearGradient5246-4"
       id="radialGradient5254-1"
       cx="413.125"
       cy="493.48718"
       fx="413.125"
       fy="493.48718"
       r="15.125"
       gradientUnits="userSpaceOnUse" />
    <linearGradient
       id="linearGradient5246-4">
      <stop
         style="stop-color:#ffffff;stop-opacity:1;"
         offset="0"
         id="stop5248-9" />
      <stop
         style="stop-color:#ffffff;stop-opacity:0;"
         offset="1"
         id="stop5250-8" />
    </linearGradient>
    <linearGradient
       inkscape:collect="always"
       xlink:href="#linearGradient5264-4"
       id="linearGradient5270-2"
       x1="487.96573"
       y1="409.71228"
       x2="486.58194"
       y2="424.71228"
       gradientUnits="userSpaceOnUse"
       gradientTransform="translate(102.89941,-259.32522)" />
    <linearGradient
       id="linearGradient5264-4">
      <stop
         style="stop-color:#ffffff;stop-opacity:0.765625;"
         offset="0"
         id="stop5266-5" />
      <stop
         style="stop-color:#aaaaaa;stop-opacity:0.47486034;"
         offset="1"
         id="stop5268-2" />
    </linearGradient>
    <radialGradient
       gradientTransform="translate(103.17973,-259.14844)"
       inkscape:collect="always"
       xlink:href="#linearGradient5256-9"
       id="radialGradient5262-9"
       cx="477.29605"
       cy="420.19824"
       fx="477.29605"
       fy="420.19824"
       r="28.703125"
       gradientUnits="userSpaceOnUse" />
    <linearGradient
       id="linearGradient5256-9">
      <stop
         style="stop-color:#efefef;stop-opacity:1;"
         offset="0"
         id="stop5258-8" />
      <stop
         id="stop3820"
         offset="0.55000001"
         style="stop-color:#afafaf;stop-opacity:1;" />
      <stop
         style="stop-color:#3f3f3f;stop-opacity:1;"
         offset="1"
         id="stop5260-3" />
    </linearGradient>
    <radialGradient
       r="27.8125"
       fy="426.02725"
       fx="470.80954"
       cy="426.02725"
       cx="470.80954"
       gradientTransform="matrix(-1.3579048,1.3096266,-1.2541702,-1.3004037,1733.7086,87.033251)"
       gradientUnits="userSpaceOnUse"
       id="radialGradient5307-8"
       xlink:href="#linearGradient5224-6"
       inkscape:collect="always" />
    <linearGradient
       id="linearGradient5224-6">
      <stop
         style="stop-color:#ffffff;stop-opacity:1;"
         offset="0"
         id="stop5226-9" />
      <stop
         id="stop3818"
         offset="0.5"
         style="stop-color:#464646;stop-opacity:1;" />
      <stop
         style="stop-color:#000000;stop-opacity:1;"
         offset="1"
         id="stop5228-8" />
    </linearGradient>
    <radialGradient
       r="27.8125"
       fy="426.02725"
       fx="470.80954"
       cy="426.02725"
       cx="470.80954"
       gradientTransform="matrix(-1.3579048,1.3096266,-1.2541702,-1.3004037,1749.2061,96.58797)"
       gradientUnits="userSpaceOnUse"
       id="radialGradient5389"
       xlink:href="#linearGradient5224-6"
       inkscape:collect="always" />
  </defs>
  <sodipodi:namedview
     pagecolor="#ffffff"
     bordercolor="#666666"
     borderopacity="1"
     objecttolerance="10"
     gridtolerance="10"
     guidetolerance="10"
     inkscape:pageopacity="0"
     inkscape:pageshadow="2"
     inkscape:window-width="1122"
     inkscape:window-height="784"
     id="namedview4"
     showgrid="false"
     fit-margin-left="50"
     fit-margin-top="50"
     fit-margin-right="50"
     fit-margin-bottom="50"
     inkscape:zoom="1.4142136"
     inkscape:cx="419.05903"
     inkscape:cy="245.55431"
     inkscape:window-x="-2"
     inkscape:window-y="0"
     inkscape:window-maximized="0"
     inkscape:current-layer="svg2" />
  <path
     style="fill:url(#linearGradient5007);fill-opacity:1;stroke:none"
     d="M 73.7611,50 C 60.83377,50 50.41735,60.41643 50.41735,73.34375 l 0,314.74999 c 0,12.92733 10.41642,23.34375 23.34375,23.34375 l 482.15619,0 c 12.9274,0 23.3438,-10.41642 23.3438,-23.34375 l 0,-167.1875 c -26.757,-0.0339 -48.4375,-21.7351 -48.4375,-48.5 0,-26.7649 21.6805,-48.46613 48.4375,-48.5 l 0,-50.56249 C 579.26109,60.41643 568.84469,50 555.91729,50 L 73.7611,50 z"
     id="rect3405"
     inkscape:connector-curvature="0" />
  <path
     style="fill:url(#linearGradient4203);fill-opacity:1;stroke:none"
     d="m 64.15048,67.86548 c 5.63736,2.51838 10.41981,8.06185 14.2882,16.83967 l 475.18471,0 c 1.0603,-7.34065 5.5794,-13.03423 12.3491,-17.656138 -2.8316,-3.498205 -5.9796,-5.414532 -9.4915,-5.511164 l -483.19627,0 c -3.97519,0.979393 -7.06394,3.035165 -9.13424,6.327632 z"
     id="path4195"
     inkscape:connector-curvature="0"
     sodipodi:nodetypes="ccccccc" />
  <path
     style="fill:url(#linearGradient5015);fill-opacity:1;stroke:none"
     d="m 51.26231,67.223481 c -0.0249,0.09174 -0.0386,0.189058 -0.0625,0.28125 l 0,89.187489 0.0625,-89.468739 z m 487.06248,131.093739 -0.1563,0.21875 c -158.43358,85.29221 -322.48801,91.70871 -486.96868,92.34375 -0.0313,1.2e-4 -0.0625,-1.1e-4 -0.0937,0 l -0.6875,0 0,97.25 c 0,12.9273 10.41645,23.3125 23.34375,23.3125 l 482.15618,0 c 12.9275,0 23.3438,-10.3852 23.3438,-23.3125 l 0,-167.21875 c -17.2347,-0.0218 -32.3525,-9.02991 -40.9375,-22.59375 z"
     id="rect3405-9"
     inkscape:connector-curvature="0" />
  <path
     style="fill:#ffffff;fill-opacity:1"
     d="m 91.990408,376.69992 c 0,0 -3.220578,-0.41829 -2.977497,-1.36286 0.929795,-3.61301 1.708028,-5.5631 1.946758,-6.83118 0.227912,-1.21062 2.653866,0.1515 2.653866,0.1515 l 1.856155,-4.23636 c 0,0 -2.662706,-0.76605 -2.282354,-1.71623 0.946813,-2.3653 2.144556,-4.16719 2.550635,-5.02881 0.466325,-0.98946 2.306199,0.78172 2.306199,0.78172 0,0 1.04388,-1.27498 1.581357,-1.8339 2.307383,-2.39943 4.656893,-3.91967 5.643763,-6.09655 l 1.63087,-3.81472 c 0,0 -2.50597,-1.42759 -1.8731,-2.35254 1.29958,-1.89936 1.69205,-2.60389 3.0052,-4.87007 0.43976,-0.75891 2.03294,1.67068 2.03294,1.67068 l 1.75,-2.81696 c 0,0 -1.9137,-1.25621 -1.43199,-2.23159 0.88389,-1.7897 2.36988,-3.57926 3.62393,-5.15987 0.51261,-0.6461 2.02772,1.41783 2.02772,1.41783 0,0 3.84412,-4.97338 5.93929,-5.2844 1.38891,-0.11873 3.91156,2.225 3.91156,2.225 l 4.81087,4.5 4.81086,4.5 2.89629,-0.007 c 5.40769,-0.0131 18.84734,-3.82827 34.3963,-9.76428 8.52501,-3.25453 17.87046,-6.48418 20.76767,-7.17699 0,0 3.46229,-1.26976 5.26765,-1.25967 0.89589,0.005 2.60685,0.65427 2.60685,0.65427 l 2.60684,0.65428 -2.51572,-4.3003 c -1.38364,-2.36517 -4.43441,-8.1253 -6.77948,-12.8003 -2.59142,-4.49417 -3.98627,-9.09431 -6.15968,-13.42399 l -2.39593,0.88852 -4.78526,-11.40681 c -13.17592,-27.29849 -14.93771,-35.07627 -13.96615,-52.05772 0.9835,-4.19246 2.16047,-6.42131 4.2073,-9.48728 l -2.57217,-0.55552 c 0,0 -2.85069,0.52066 -2.82218,-0.43052 0.18011,-6.00981 1.24522,-17.82584 1.24522,-17.82584 2.16081,-20.16229 4.72131,-40.11257 9.371,-54.3254 l 2.00362,-6.12455 6.71022,-3.13553 6.71021,-3.13553 -3.39031,0.51315 c -1.86467,0.28223 -9.87567,1.02799 -17.80224,1.65724 l -14.41192,1.14408 -13.67886,14.47786 -14.92886,13.72785 -1.16287,4.7681 c 0,0 -0.39733,3.32231 -1.16286,4.7681 -0.85226,1.60958 -3.66283,4.05432 -3.66283,4.05432 -2.01456,2.22987 -5.3631,4.92173 -7.44121,5.9819 -1.25946,0.64253 -2.40363,1.59717 -3.77837,1.92758 -0.95871,0.23042 -2.95805,0 -2.95805,0 -3.792,0 -6.13307,-0.90769 -6.079,-2.35699 0.0234,-0.62866 1.8043,-3.14965 3.95746,-5.60222 2.15315,-2.45257 3.76568,-4.60836 3.5834,-4.79064 -0.18229,-0.18228 -2.02324,0.66678 -4.09102,1.8868 0,0 -2.57646,2.72751 -4.00268,2.43918 -1.22937,-0.32536 -1.995479,-2.06718 -2.354975,-4.23081 0.173028,-1.12386 2.620005,-1.85773 3.824165,-2.7292 3.6973,-2.6758 4.77975,-4.40792 7.41985,-8.61612 1.20768,-1.925 3.65239,-4.4 5.43268,-5.5 l 3.2369,-2 8.4393,-14 c 4.64162,-7.7 10.36823,-16.925 12.7258,-20.5 0,0 2.21594,-4.93512 4.28649,-6.5 1.14731,-0.86711 4.11321,-1.30208 4.11321,-1.30208 l 5.17387,-1.47884 c -0.29552,-1.6886 -1.10179,-3.79198 0.50062,-4.15364 14.50839,-3.2228 19.34337,-5.47987 32.3986,-7.796593 11.00377,-1.952679 20.81371,-1.615397 20.81371,-1.615397 l 4.5,0.87812 c 6.44375,1.25741 16.82379,3.8137 21.5967,5.31863 l 4.09671,1.2917 2.26095,-4.26193 c 2.85356,-5.37901 8.41083,-10.99429 13.42324,-13.56337 6.90145,-3.001043 12.52395,-4.067088 19.28329,-2.174593 l 4.35921,1.623553 c 7.22819,4.734609 11.16063,11.326192 14.47481,19.03025 0.78441,8.32338 1.80292,14.09063 -2.77662,18.15206 -1.06992,0.94887 -2.57724,0.79087 -5.08401,2.11882 -3.04752,1.61441 -5.55518,5.52523 -8.82518,10.31701 0,0 -1.4392,2.16494 -2.61846,2.85337 -1.11284,0.64966 -2.22581,0.39775 -3.23316,0.26134 -2.4295,-0.32899 -4.16123,0.92426 -4.16123,0.92426 l -3.45529,2.03866 c -1.9004,1.12127 -4.52392,2.03867 -5.83003,2.03867 0,0 -1.40599,0.27434 -2.10957,-0.0884 -1.14487,-0.59023 -2.50655,-3.05933 -2.50655,-3.05933 l -2.24137,-3.14772 -0.75494,2.04079 c -6.18628,17.00954 -7.08427,36.01681 -13.40673,52.88574 l 7.75823,0.81728 c 3.98436,0.41972 14.63681,2.03749 23.66513,3.66391 0,0 11.65692,1.11421 16.37094,2.42679 1.19013,0.33138 2.23181,3.52207 2.23181,3.52207 l 9.77999,1.99792 c 5.379,1.09886 14.14997,3.61945 19.49106,5.60131 l 9.71107,3.60338 c 0,0 6.86766,-1.6779 10.34444,-1.4719 4.04845,0.23988 11.75865,2.81495 11.75865,2.81495 l 0.64683,-1.13324 9.2684,3.82697 c 4.65441,1.92183 14.91865,6.91766 24.16682,10.8379 19.08893,8.09168 32.43141,13.03125 40.01741,14.81498 l 5.2026,1.22331 14.7974,-1.67239 c 8.1386,-0.91981 16.9964,-2.08457 19.684,-2.58836 6.9685,-1.30624 9.07171,-1.1207 11.31001,1.11767 1.27996,1.48546 3.24287,3.66459 2.50935,4.32168 -0.91843,0.82273 -2.29928,1.8463 -3.27317,2.29704 0,0 1.29523,1.55742 0.71059,2.03565 -1.36172,1.11388 -2.40052,1.48727 -4.08262,2.32846 -0.40994,0.205 -1.28559,-1.67938 -1.28559,-1.67938 l -2.83229,1.98874 c 0.51107,0.60294 1.32746,1.51053 0.86042,1.90001 -1.51057,1.25968 -2.38752,1.68906 -4.18348,2.88023 -0.56148,0.37241 -0.85827,-0.8821 -1.50829,-1.51724 l -16.53498,13.02964 c 0,0 2.10074,1.62443 1.11785,2.47582 -2.06133,1.78557 -2.20828,1.7847 -3.68358,2.9171 -0.39476,0.30301 -1.64555,-1.15156 -2.33387,-1.966 l -2.3822,1.70113 c 0,0 1.71285,1.98491 1.09235,2.48496 -0.90289,0.72762 -2.20769,1.43527 -4.07399,2.55092 -1.00662,0.60174 -2.6963,-2.26016 -2.6963,-2.26016 0,0 -5.40821,3.62757 -7.71164,2.54678 -1.47645,-0.69277 -1.61477,-3.86131 -3.34617,-7.10969 0,0 -1.44858,-4.11758 -3.1479,-5.5084 -1.25881,-1.03029 -4.1688,-1.52028 -4.1688,-1.52028 -8.4706,-1.67333 -23.44894,-4.77858 -32.24225,-5.40564 -29.69137,-2.11732 -35.99863,-3.28828 -46.5,-8.63284 l -7.5,-3.81704 -22,-0.83943 -22.64082,-0.94993 -1.57967,2.71423 -22.63975,0 -22.63976,0 0,2.20742 c 0,1.21409 1.47399,6.94681 2.35885,13.80883 0,0 2.60388,12.31567 1.12401,13.30721 -1.52853,1.02413 -3.66516,2.53033 -3.66516,2.53033 l 2.5362,15.3231 c 3.68511,22.26455 3.72934,22.62322 3.80117,30.82311 l 0.0657,7.5 -1.179,2.99557 c -0.64845,1.64756 -2.33174,4.50689 -3.74065,6.35407 l -2.56166,3.3585 -6.11973,2.89514 c -3.36585,1.59233 -5.34887,2.38891 -6.50515,2.67718 -0.87916,0.21918 -3.0863,0.73502 -3.82167,1.05955 -0.36387,0.16058 -0.20996,1.12295 -0.78,1.27751 -1.04649,0.28374 -12.02208,0.90185 -12.02208,0.90185 -6.59496,0.53039 -25.22724,1.63302 -41.40508,2.45031 l -29.41425,1.48596 -4.08575,2.73804 c -8.51221,5.7044 -16.22464,12.32582 -20.06604,17.22747 0,0 -3.04949,3.39381 -4.86416,4.54852 -1.43386,0.91239 -3.694632,1.67938 -5.320975,1.67938 -3.361004,0 -5.437777,-1.64979 -5.40935,-3.62392 0.03628,-2.51963 1.265143,-6.13584 1.265143,-6.13584 z"
     id="path4328"
     inkscape:connector-curvature="0"
     sodipodi:nodetypes="cssccsscsccssccsscccccssssccscccccccssscccssccccssssscscsccssscssscccscsscsccccssssscsssccccssscsscsccssscsscscssccssccssccsscscssssccccccssscsscsscsssssscsssssc" />
  <path
     style="fill:url(#linearGradient4993);fill-opacity:1;stroke:none"
     d="m 50.42644,386.50307 0,1.625 c 0,12.9273 10.41642,23.3125 23.34375,23.3125 l 482.1562,0 c 12.9273,0 23.3437,-10.3852 23.3437,-23.3125 l 0,-1.625 -528.84365,0 z"
     id="rect3405-9-5"
     inkscape:connector-curvature="0" />
  <path
     inkscape:connector-curvature="0"
     style="fill:url(#radialGradient5389);fill-opacity:1;stroke:none"
     d="m 578.96099,145.07031 c -12.48283,0 -22.59375,7.64807 -22.59375,17.0625 0,9.41443 10.11092,17.03125 22.59375,17.03125 12.48283,0 22.59375,-7.61682 22.59375,-17.03125 0,-9.41443 -10.11092,-17.0625 -22.59375,-17.0625 z m 24.15625,12.5625 c 1.67972,2.98918 2.625,6.33478 2.625,9.875 0,12.58744 -11.91422,22.78125 -26.59375,22.78125 -14.67953,0 -26.5625,-10.19381 -26.5625,-22.78125 0,-2.15844 0.34617,-4.2399 1,-6.21875 -1.32177,3.03565 -2.0625,6.36282 -2.0625,9.84375 0,14.39361 12.44955,26.0625 27.8125,26.0625 15.36295,0 27.8125,-11.66889 27.8125,-26.0625 0,-4.9478 -1.47571,-9.55951 -4.03125,-13.5 z"
     id="path5068-1" />
  <path
     style="fill:url(#radialGradient5262-9);fill-opacity:1;stroke:none"
     d="m 579.07721,143.66038 c -15.85113,0 -28.71875,12.86762 -28.71875,28.71875 0,15.85113 12.86762,28.6875 28.71875,28.6875 15.85113,0 28.6875,-12.83637 28.6875,-28.6875 0,-15.85113 -12.83637,-28.71875 -28.6875,-28.71875 z m -9.17186,2.76333 c 0.20614,0.0263 5.58393,-1.5887 9.09671,-1.36988 3.86154,0.24054 13.84939,1.76842 18.6049,8.2415 8.77337,11.94208 -1.14771,19.44319 -2.74674,20.87574 -0.10814,-1.07951 -1.95827,-8.53598 -3.84224,-11.88514 -1.08352,-1.9262 -2.93655,-4.27329 -4.0543,-5.55729 -1.82045,-2.09124 -3.60943,-3.46823 -5.81745,-5.16088 -7.60769,-1.77794 -1.31652,0.32109 1.21945,2.10735 0,0 10.65824,9.4191 11.60104,20.93771 -3.96657,2.57839 -9.39928,4.57881 -15.04576,4.57881 -12.48283,0 -22.2402,-7.52843 -22.2402,-16.94286 2.28936,-11.65238 8.82656,-12.94157 9.24712,-13.88042 1.25296,-0.76195 2.66122,-1.30311 3.97747,-1.94464 z m 9.42294,50.75715 c -25.33887,-1.63878 -30.60563,-22.60865 -25.60555,-35.71877 -5.54061,13.1227 6.03066,28.32559 25.50531,29.03126 11.13641,0.0553 14.7156,-4.02437 14.7156,-4.02437 0,0 -0.0729,2.56897 -0.34276,3.90961 -0.29506,1.46582 -0.77021,3.08195 -0.77021,3.08195 -4.45017,2.82682 -5.65084,2.94596 -13.50235,3.72032 z"
     id="path4979-7"
     inkscape:connector-curvature="0"
     sodipodi:nodetypes="ssssscsscsscccsccccccccscc" />
  <path
     style="fill:url(#linearGradient5270-2);fill-opacity:1;stroke:none"
     d="m 595.2191,175.88485 c -0.71241,-2.63037 -0.98031,-4.27885 -1.54422,-6.31334 -0.0569,-0.20529 -0.87285,-3.04047 -0.94694,-3.2471 -3.487,-9.7245 -8.18542,-12.71532 -14.21351,-16.52041 -1.73765,-1.5162 -6.2399,-3.60536 -8.33755,-4.15653 2.40118,-0.83967 3.25274,-0.71056 4.48635,-1.12788 5.98557,-0.20669 11.54309,0.32631 17.9302,3.67256 7.19277,3.76833 11.12198,9.23882 11.13783,15.50677 0.005,1.88171 -0.15945,3.18036 -0.60673,4.79822 -0.8954,3.23875 -2.29721,6.02065 -4.8805,9.68538 -0.98148,1.25642 -1.86773,1.5987 -2.5089,1.3503 -0.59398,-0.23012 -0.16959,-2.36886 -0.51603,-3.64797 z"
     id="path5118-2"
     inkscape:connector-curvature="0"
     sodipodi:nodetypes="csscccscscsc" />
  <path
     sodipodi:type="arc"
     style="fill:url(#radialGradient5254-1);fill-opacity:1;stroke:none"
     id="path5244"
     sodipodi:cx="413.125"
     sodipodi:cy="493.48718"
     sodipodi:rx="15.125"
     sodipodi:ry="15.125"
     d="m 428.25,493.48718 a 15.125,15.125 0 1 1 -30.25,0 15.125,15.125 0 1 1 30.25,0 z"
     transform="matrix(0.82644628,0,0,0.82644628,233.84251,-248.3769)" />
  <path
     style="fill:#ffffff;fill-opacity:1;stroke:#ffffff;stroke-width:1px;stroke-linecap:butt;stroke-linejoin:miter;stroke-opacity:1"
     d="m 565.45095,163.07618 c 3.83548,-4.35225 9.83304,-6.77408 20.25,-5.25 -3.20172,-3.91379 -7.05033,-6.74946 -11.25,-9 -8.84658,1.81388 -12.78363,6.20526 -15,11.5 1.6147,0.48321 3.09799,0.81857 6,2.75 z"
     id="path5272"
     inkscape:connector-curvature="0"
     sodipodi:nodetypes="ccccc" />
  <path
     style="fill:#000000"
     d="m 347.27662,448.90212 c -9.34261,0 -15.95073,3.62509 -19.16538,10.49464 -1.33323,2.84904 -1.38248,3.18661 -1.20145,7.9325 0.15098,3.95832 0.39176,5.37034 1.20145,6.91922 2.38769,4.56746 5.98595,6.72867 17.64547,10.59597 11.24543,3.72993 13.46173,5.37045 13.47655,9.97353 0.009,2.84344 -1.42513,4.94618 -4.38602,6.42705 -2.02257,1.01157 -2.90194,1.16682 -6.94818,1.14356 -5.6157,-0.0323 -8.54328,-1.03513 -13.02783,-4.42946 -1.64833,-1.24763 -3.24788,-2.27264 -3.54647,-2.27264 -0.71153,0 -6.81788,6.06774 -6.81788,6.77448 0,0.78033 4.7005,4.9839 7.04949,6.29678 2.81543,1.57356 5.71402,2.67294 8.9313,3.41618 3.87111,0.89428 12.51999,0.5616 16.31374,-0.63691 5.86551,-1.85302 9.84464,-5.3118 11.78294,-10.21961 0.82841,-2.0975 1.03678,-3.58373 1.05671,-7.48376 0.0224,-4.4189 -0.0929,-5.09333 -1.27383,-7.49824 -1.42753,-2.90697 -4.10436,-5.52937 -7.57062,-7.41138 -1.23668,-0.67147 -5.9957,-2.50271 -10.58149,-4.06759 -4.5858,-1.56486 -9.12544,-3.3649 -10.08934,-3.99519 -3.2547,-2.12824 -3.9481,-5.81785 -1.6357,-8.7576 3.38592,-4.3045 13.47232,-3.97477 19.59964,0.6514 1.38148,1.04304 2.6705,1.89627 2.86612,1.89627 0.73368,0 6.62972,-6.25617 6.62972,-7.03503 0,-1.15121 -4.28379,-4.41734 -8.10622,-6.18099 -4.12808,-1.90467 -7.13463,-2.53318 -12.20272,-2.53318 z m 140.26627,0.0145 c -6.22483,-0.009 -9.372,0.66533 -14.34508,3.08325 -6.29209,3.05921 -10.90751,8.96313 -13.50552,17.28359 -0.9639,3.08694 -1.08565,4.37743 -1.08565,11.58029 0,8.7687 0.60359,11.89122 3.34381,17.37044 3.74465,7.4877 10.76955,12.74403 18.80349,14.08452 10.29818,1.7183 20.86648,-0.96758 26.66363,-6.77447 5.10034,-5.10896 6.95468,-10.61533 7.33901,-21.78541 l 0.26055,-7.5272 -12.81069,0 -12.79623,0 0,6.02175 0,6.02175 4.16891,0 c 4.10832,0 4.1689,0.0177 4.1689,1.12908 0,2.7385 -2.22283,5.86697 -5.02295,7.06398 -1.87823,0.80294 -6.41738,0.88857 -8.62731,0.15922 -2.03286,-0.6709 -5.00607,-4.00323 -5.73225,-6.42705 -1.11074,-3.70728 -1.50961,-9.14818 -0.98432,-13.37524 1.02522,-8.25043 4.31822,-12.18673 10.17618,-12.15931 2.12229,0.0101 5.15334,1.41122 6.35469,2.9385 0.5262,0.66892 1.39023,1.21593 1.91074,1.21593 1.03782,0 14.86437,-5.33955 15.51758,-5.99279 0.64375,-0.64369 -2.00769,-5.0737 -4.57421,-7.643 -4.39374,-4.39846 -10.07559,-6.25407 -19.22328,-6.26783 z m -265.4058,0.83957 0,31.12203 0,31.12203 11.92771,-0.21713 c 9.22381,-0.1768 12.53818,-0.41386 14.63459,-1.01327 13.75269,-3.93216 20.6853,-14.0621 20.6853,-30.23903 0,-6.16229 -0.99236,-11.00446 -3.19906,-15.64787 -3.16258,-6.65481 -8.29611,-11.11593 -15.53207,-13.52 -3.61191,-1.20002 -4.16541,-1.25868 -16.12555,-1.43305 z m -49.21623,0.0433 -5.15323,0.13027 -5.15322,0.13028 -0.1158,30.34036 c -0.066,16.68721 -0.0238,30.62091 0.10132,30.94833 0.16963,0.44381 1.43376,0.56169 4.97952,0.4632 l 4.7624,-0.14475 0.1158,-21.71304 c -0.26721,-10.01417 -0.4974,-20.83686 -0.4974,-20.83686 0,0 0.46916,0.26914 5.23085,6.4773 2.53854,4.0508 8.74233,13.81528 13.78055,21.71305 l 9.16289,14.35955 4.86374,0 4.86371,0 0.1158,-30.91936 0.11581,-30.91939 -5.09532,0 -5.09534,0 -0.0289,21.65515 c -0.0176,13.97978 -0.17692,21.40888 -0.46322,20.96033 -0.24391,-0.38215 -6.31463,-10.1334 -13.47656,-21.66962 l -13.0134,-20.97469 z m 383.07602,0.0145 -18.12314,0.24608 -21.82886,61.27422 18.87587,0.33293 2.98193,-10.19067 17.7645,0.35316 3.28269,10.06911 19.12195,-0.37635 z m -507.564139,0.0145 0,30.7312 c 0,16.89951 0.134139,30.86535 0.303985,31.03519 0.501357,0.50136 26.984169,0.34996 30.267985,-0.17371 3.558296,-0.56745 7.95483,-2.51687 10.248553,-4.53079 3.618132,-3.17676 5.861499,-9.80513 5.35589,-15.83605 -0.433,-5.16477 -2.803026,-9.28586 -6.716571,-11.63819 -0.937559,-0.56354 -1.769793,-1.06903 -1.852846,-1.12908 -0.08304,-0.0601 0.773791,-0.96407 1.910749,-2.01208 3.179155,-2.93044 4.144031,-5.6582 3.951772,-11.14603 -0.136648,-3.90057 -0.347751,-4.83406 -1.563339,-7.20872 -1.731888,-3.38326 -4.850404,-5.88714 -8.945774,-7.16532 -2.680998,-0.83673 -4.283739,-0.92642 -17.949452,-0.92642 z m 92.179109,0 -0.0145,18.41267 c -0.005,10.12697 -0.2094,19.85585 -0.4632,21.61172 -1.22205,8.45419 -5.69292,12.55209 -13.56342,12.44881 -5.64921,-0.0742 -9.37072,-2.68193 -11.62372,-8.1641 -0.93061,-2.26444 -0.98083,-3.37712 -1.20145,-23.23297 l -0.23161,-20.84451 -5.09533,0 -5.09532,0 0,20.61291 c -0.524,19.65804 -0.12195,41.79711 23.39218,42.10883 11.88731,0.0985 19.74498,-5.67758 23.01583,-16.93617 0.67416,-2.32055 0.80219,-5.74756 0.95537,-24.36204 l 0.17371,-21.65515 -5.12429,0 -5.12428,0 z m 289.97049,0 -0.18154,61.90586 18.47839,-0.0671 0.23161,-61.83877 z m -153.09145,0.23148 -0.1158,30.34037 c -0.066,16.68719 -0.0204,30.60091 0.10134,30.91937 0.17243,0.45124 4.76936,0.57901 20.84451,0.57901 l 20.62739,0 0,-5.09532 0,-5.09533 -15.51758,0 -15.5176,0 0,-9.03264 0,-9.03262 8.56942,0 8.56942,0 0,-5.09533 0,-5.09532 -8.56942,0 -8.56942,0 0,-6.94817 0,-6.94818 15.06886,0 15.06885,0 -0.13028,-4.74792 -0.13027,-4.74792 -20.14971,0 z m 102.83299,0 -0.11581,30.34037 c -0.066,16.68719 -0.0204,30.60091 0.10132,30.91937 0.17237,0.4511 4.72309,0.57901 20.61293,0.57901 l 20.39579,0 0,-7.8746 0,-7.8746 -11.34869,0 -11.3342,0 -0.1303,-23.04477 -0.11578,-23.04478 -9.03264,0 z m -311.509828,9.134 c 3.030974,0.0267 5.812486,0.16533 6.875803,0.36188 4.273104,0.78994 6.459924,3.80639 5.96385,8.20754 -0.281912,2.50112 -2.458126,5.01088 -4.950577,5.70329 -0.902987,0.25085 -5.447853,0.44735 -10.10381,0.44874 l -8.46808,0 0.130275,-7.29558 0.130275,-7.29559 7.353489,-0.1158 c 1.011625,-0.0176 2.058447,-0.0234 3.068775,-0.0145 z m 163.513708,0.36188 2.43186,0.0145 c 4.24675,0.014 10.87676,0.87109 12.94097,1.67914 7.38522,2.89101 11.03024,9.35692 11.03024,19.57069 0,4.97794 -0.63006,8.25934 -2.17132,11.39211 -2.23799,4.54899 -6.08786,7.56711 -11.26182,8.78655 -1.70375,0.40154 -5.16681,0.70559 -7.99041,0.70929 l -4.97952,0 0,-21.07613 0,-21.07613 z m 314.79573,11.23289 4.80582,15.98081 -10.00248,-0.23161 z m -488.963305,12.39091 8.308858,0 c 10.453663,0 12.60412,0.43034 15.141227,2.96746 4.834411,4.83439 2.91906,13.7869 -3.314857,15.51758 -1.056262,0.29324 -5.741923,0.50525 -10.986797,0.50664 l -9.148431,0 0,-9.49585 z"
     id="path3841"
     inkscape:connector-curvature="0"
     sodipodi:nodetypes="ssssscsssssssssccssssssssscssssssccccccsscsssccscscccccsssscccccccccccccccccccccccccccccccccccscsssscssssscccscsscccccscccccccccccccsccccccccccccccccccccccccscccccccccccsscccccccccssssccccccccccssscccc" />
</svg>
