<?xml version="1.0" encoding="UTF-8" ?>
<!DOCTYPE svg PUBLIC "-//W3C//DTD SVG 1.1//EN" "http://www.w3.org/Graphics/SVG/1.1/DTD/svg11.dtd">
<svg width="1189pt" height="457pt" viewBox="0 0 1189 457" version="1.1" xmlns="http://www.w3.org/2000/svg">
<g id="#ffffffff">
<path fill="#ffffff" opacity="1.00" d=" M 164.74 193.12 C 173.77 180.23 187.10 170.47 202.21 166.01 C 199.55 167.93 197.23 170.27 195.04 172.70 C 203.10 171.75 211.49 172.49 218.95 175.88 C 219.63 183.05 220.48 190.20 221.41 197.34 C 222.67 190.24 223.27 183.03 224.04 175.86 C 231.48 172.50 239.86 171.74 247.91 172.72 C 245.75 170.24 243.40 167.93 240.73 166.00 C 255.82 170.46 269.11 180.21 278.16 193.06 C 275.49 191.36 272.71 189.86 269.82 188.57 C 273.13 195.88 274.96 203.91 274.21 211.96 C 267.71 215.08 260.98 217.74 254.61 221.13 C 261.70 220.11 268.69 218.41 275.72 217.01 C 281.13 223.16 284.55 230.82 286.13 238.82 C 287.17 236.91 288.42 235.07 289.01 232.95 C 289.34 232.08 289.49 230.48 290.61 230.34 C 289.82 238.34 289.23 246.50 286.41 254.13 C 284.13 261.18 280.24 267.53 276.17 273.67 C 276.88 270.66 277.38 267.60 277.82 264.54 C 271.85 269.93 264.75 274.17 256.85 275.98 C 251.81 270.62 247.01 265.01 241.80 259.81 C 245.05 266.37 248.94 272.61 252.46 279.03 C 248.33 286.07 242.07 291.63 234.99 295.58 C 238.06 296.19 241.15 296.72 244.29 296.78 C 229.57 301.69 213.39 301.69 198.67 296.79 C 201.80 296.72 204.89 296.18 207.95 295.59 C 200.88 291.62 194.61 286.08 190.49 279.03 C 194.03 272.61 197.88 266.35 201.18 259.80 C 195.93 264.98 191.16 270.63 186.09 275.98 C 178.20 274.16 171.10 269.94 165.15 264.54 C 165.54 267.62 166.08 270.67 166.78 273.69 C 163.03 268.03 159.39 262.22 157.10 255.78 C 154.06 247.64 152.78 238.90 152.45 230.27 C 154.10 233.00 155.10 236.09 156.79 238.82 C 158.41 230.82 161.81 223.13 167.26 216.99 C 174.31 218.41 181.33 220.08 188.44 221.13 C 182.03 217.76 175.28 215.07 168.74 211.94 C 168.00 203.90 169.82 195.87 173.13 188.56 C 170.22 189.86 167.41 191.37 164.74 193.12 M 221.46 199.98 C 211.36 207.35 201.22 214.67 191.12 222.03 C 195.01 233.93 198.86 245.83 202.73 257.73 C 215.24 257.72 227.74 257.73 240.25 257.73 C 244.12 245.83 247.97 233.93 251.86 222.04 C 241.73 214.68 231.62 207.30 221.46 199.98 Z" />
</g>
<g id="#931c81ff">
<path fill="#931c81" opacity="1.00" d=" M 202.15 5.13 C 204.05 4.43 205.72 6.01 205.75 7.87 C 211.20 37.28 216.79 66.66 222.12 96.08 C 222.78 98.60 219.87 99.25 218.05 99.50 C 189.53 104.86 163.72 123.11 149.27 148.29 C 148.48 150.07 146.58 152.07 144.57 150.53 C 118.78 135.64 93.07 120.63 67.31 105.69 C 65.78 105.08 64.55 103.27 65.62 101.70 C 93.89 51.44 145.41 15.18 202.15 5.13 Z" />
</g>
<g id="#e52620ff">
<path fill="#e52620" opacity="1.00" d=" M 240.57 27.79 C 293.54 23.04 348.06 40.89 387.97 76.03 C 389.36 76.94 389.43 79.04 388.19 80.11 C 368.71 102.67 349.17 125.17 329.65 147.70 C 328.59 149.41 326.27 149.59 324.97 148.04 C 303.00 128.72 272.49 119.51 243.51 123.76 C 241.64 124.05 238.63 124.61 238.27 122.01 C 233.78 92.73 229.60 63.40 225.19 34.11 C 224.96 32.56 224.53 30.29 226.44 29.64 C 231.07 28.58 235.85 28.30 240.57 27.79 Z" />
</g>
<g id="#2d52a0ff">
<path fill="#2d52a0" opacity="1.00" d=" M 32.04 104.94 C 33.54 104.08 35.04 105.11 36.36 105.77 C 62.36 119.79 88.45 133.64 114.42 147.70 C 116.62 148.72 115.75 151.24 114.72 152.82 C 100.93 178.42 99.02 210.03 109.56 237.13 C 110.62 238.99 110.77 241.84 108.16 242.38 C 80.57 253.06 52.93 263.65 25.33 274.31 C 23.78 275.14 21.43 275.18 20.85 273.16 C 0.88 223.34 2.87 165.39 25.70 116.86 C 27.74 112.86 29.35 108.56 32.04 104.94 Z" />
</g>
<g id="#ef7d1bff">
<path fill="#ef7d1b" opacity="1.00" d=" M 381.45 110.48 C 382.51 109.17 384.45 109.39 385.47 110.64 C 427.76 149.86 451.17 208.40 447.65 265.96 C 447.64 267.78 445.62 268.53 444.09 268.21 C 414.36 266.77 384.63 265.37 354.91 263.87 C 352.15 264.12 351.82 260.99 352.15 258.98 C 353.49 229.91 341.50 200.57 320.25 180.72 C 318.50 179.55 317.61 177.00 319.63 175.59 C 340.21 153.87 360.79 132.13 381.45 110.48 Z" />
</g>
<g id="#000101ff">
<path fill="#000101" opacity="1.00" d=" M 880.50 122.69 C 891.11 119.70 903.29 126.04 906.74 136.55 C 909.59 144.57 907.21 154.10 900.94 159.86 C 894.74 165.79 884.93 167.62 877.07 164.13 C 869.58 160.98 864.49 153.19 864.26 145.12 C 863.57 135.05 870.69 125.12 880.50 122.69 Z" />
<path fill="#000101" opacity="1.00" d=" M 524.44 294.19 C 524.43 244.40 524.43 194.60 524.44 144.81 C 537.40 144.81 550.35 144.81 563.31 144.81 C 563.32 183.27 563.30 221.73 563.33 260.19 C 578.97 260.18 594.61 260.18 610.25 260.19 C 610.25 271.52 610.25 282.85 610.25 294.19 C 581.65 294.19 553.04 294.19 524.44 294.19 Z" />
<path fill="#000101" opacity="1.00" d=" M 765.81 144.81 C 778.77 144.81 791.72 144.82 804.68 144.81 C 804.71 183.27 804.68 221.72 804.69 260.18 C 820.36 260.19 836.02 260.18 851.69 260.19 C 851.69 271.52 851.69 282.85 851.69 294.18 C 823.06 294.19 794.44 294.19 765.81 294.19 C 765.81 244.40 765.81 194.60 765.81 144.81 Z" />
<path fill="#000101" opacity="1.00" d=" M 211.55 157.81 C 226.26 155.85 241.55 158.33 254.82 165.01 C 270.40 172.75 283.10 186.09 290.03 202.04 C 297.75 219.52 298.30 240.00 291.60 257.90 C 281.89 284.80 255.57 304.71 226.98 306.45 C 211.01 307.67 194.69 303.58 181.23 294.90 C 167.31 286.03 156.45 272.45 150.96 256.88 C 144.46 238.72 145.39 218.04 153.56 200.57 C 163.97 177.70 186.59 160.93 211.55 157.81 M 164.74 193.12 C 167.41 191.37 170.22 189.86 173.13 188.56 C 169.82 195.87 168.00 203.90 168.74 211.94 C 175.28 215.07 182.03 217.76 188.44 221.13 C 181.33 220.08 174.31 218.41 167.26 216.99 C 161.81 223.13 158.41 230.82 156.79 238.82 C 155.10 236.09 154.10 233.00 152.45 230.27 C 152.78 238.90 154.06 247.64 157.10 255.78 C 159.39 262.22 163.03 268.03 166.78 273.69 C 166.08 270.67 165.54 267.62 165.15 264.54 C 171.10 269.94 178.20 274.16 186.09 275.98 C 191.16 270.63 195.93 264.98 201.18 259.80 C 197.88 266.35 194.03 272.61 190.49 279.03 C 194.61 286.08 200.88 291.62 207.95 295.59 C 204.89 296.18 201.80 296.72 198.67 296.79 C 213.39 301.69 229.57 301.69 244.29 296.78 C 241.15 296.72 238.06 296.19 234.99 295.58 C 242.07 291.63 248.33 286.07 252.46 279.03 C 248.94 272.61 245.05 266.37 241.80 259.81 C 247.01 265.01 251.81 270.62 256.85 275.98 C 264.75 274.17 271.85 269.93 277.82 264.54 C 277.38 267.60 276.88 270.66 276.17 273.67 C 280.24 267.53 284.13 261.18 286.41 254.13 C 289.23 246.50 289.82 238.34 290.61 230.34 C 289.49 230.48 289.34 232.08 289.01 232.95 C 288.42 235.07 287.17 236.91 286.13 238.82 C 284.55 230.82 281.13 223.16 275.72 217.01 C 268.69 218.41 261.70 220.11 254.61 221.13 C 260.98 217.74 267.71 215.08 274.21 211.96 C 274.96 203.91 273.13 195.88 269.82 188.57 C 272.71 189.86 275.49 191.36 278.16 193.06 C 269.11 180.21 255.82 170.46 240.73 166.00 C 243.40 167.93 245.75 170.24 247.91 172.72 C 239.86 171.74 231.48 172.50 224.04 175.86 C 223.27 183.03 222.67 190.24 221.41 197.34 C 220.48 190.20 219.63 183.05 218.95 175.88 C 211.49 172.49 203.10 171.75 195.04 172.70 C 197.23 170.27 199.55 167.93 202.21 166.01 C 187.10 170.47 173.77 180.23 164.74 193.12 Z" />
<path fill="#000101" opacity="1.00" d=" M 638.57 185.57 C 650.31 175.23 666.57 170.34 682.07 172.58 C 692.35 173.81 701.32 179.70 708.75 186.60 C 708.74 182.55 708.75 178.49 708.75 174.44 C 720.68 174.43 732.62 174.44 744.56 174.44 C 744.56 214.35 744.57 254.27 744.56 294.19 C 732.43 294.19 720.31 294.19 708.19 294.19 C 708.18 290.33 708.17 286.47 708.20 282.62 C 688.25 302.69 652.08 301.58 632.81 281.13 C 621.62 269.41 616.91 252.89 616.64 236.98 C 615.99 217.76 623.92 198.19 638.57 185.57 M 673.49 206.73 C 665.28 208.84 658.36 215.11 655.41 223.05 C 650.89 235.17 653.86 250.44 664.06 258.84 C 675.75 268.30 694.61 265.27 703.71 253.62 C 713.31 241.64 711.65 222.15 699.89 212.19 C 692.73 206.05 682.49 204.30 673.49 206.73 Z" />
<path fill="#000101" opacity="1.00" d=" M 940.18 183.20 C 957.20 168.75 985.09 167.85 1001.99 182.97 C 1003.74 184.47 1005.37 186.11 1007.00 187.76 C 1007.00 183.32 1006.99 178.87 1007.01 174.43 C 1018.54 174.44 1030.08 174.43 1041.62 174.44 C 1041.62 209.96 1041.65 245.49 1041.61 281.02 C 1041.54 294.17 1037.28 307.59 1028.30 317.39 C 1017.63 329.25 1001.67 335.11 986.02 336.06 C 969.44 337.05 951.90 333.65 938.53 323.32 C 929.40 316.40 923.22 305.85 921.62 294.51 C 935.16 294.50 948.70 294.48 962.25 294.51 C 964.97 299.00 969.11 303.02 974.55 303.71 C 983.89 305.05 994.95 303.96 1001.58 296.49 C 1006.42 291.02 1005.56 283.23 1005.34 276.48 C 994.81 285.42 981.03 291.36 967.03 290.09 C 953.97 289.24 941.43 282.79 933.12 272.69 C 922.16 259.62 918.08 241.84 919.64 225.09 C 921.03 209.29 927.83 193.49 940.18 183.20 M 974.47 203.63 C 965.85 205.07 958.95 212.00 956.37 220.18 C 952.72 231.23 954.18 244.85 962.74 253.31 C 972.87 263.11 990.91 261.39 1000.01 251.00 C 1009.48 240.45 1009.48 223.10 1000.84 212.08 C 994.64 204.42 983.85 201.99 974.47 203.63 Z" />
<path fill="#000101" opacity="1.00" d=" M 1078.31 186.21 C 1089.77 175.77 1105.75 170.58 1121.16 172.41 C 1131.98 173.32 1141.48 179.37 1149.25 186.60 C 1149.24 182.55 1149.24 178.49 1149.25 174.43 C 1161.16 174.44 1173.08 174.44 1184.99 174.43 C 1185.01 214.35 1185.00 254.27 1185.00 294.19 C 1172.89 294.19 1160.79 294.19 1148.69 294.19 C 1148.68 290.32 1148.67 286.45 1148.70 282.59 C 1128.85 302.61 1092.87 301.59 1073.54 281.39 C 1062.18 269.67 1057.39 253.01 1057.12 237.00 C 1056.48 218.10 1064.11 198.86 1078.31 186.21 M 1114.44 206.61 C 1105.50 208.72 1098.06 215.79 1095.37 224.55 C 1091.64 236.50 1094.80 251.12 1104.86 259.10 C 1116.46 268.15 1134.78 265.22 1143.90 253.98 C 1153.76 242.09 1152.28 222.45 1140.55 212.34 C 1133.51 206.19 1123.39 204.34 1114.44 206.61 Z" />
<path fill="#000101" opacity="1.00" d=" M 867.68 174.44 C 879.75 174.43 891.81 174.45 903.87 174.43 C 903.89 214.35 903.87 254.27 903.88 294.19 C 891.81 294.19 879.75 294.19 867.69 294.19 C 867.68 254.27 867.69 214.36 867.68 174.44 Z" />
<path fill="#000101" opacity="1.00" d=" M 221.46 199.98 C 231.62 207.30 241.73 214.68 251.86 222.04 C 247.97 233.93 244.12 245.83 240.25 257.73 C 227.74 257.73 215.24 257.72 202.73 257.73 C 198.86 245.83 195.01 233.93 191.12 222.03 C 201.22 214.67 211.36 207.35 221.46 199.98 Z" />
</g>
<g id="#4384c5ff">
<path fill="#4384c5" opacity="1.00" d=" M 87.21 263.23 C 88.42 262.53 90.26 262.64 90.85 264.10 C 92.66 267.62 94.11 271.33 96.14 274.75 C 108.58 297.28 129.95 314.68 154.52 322.33 C 155.95 322.91 157.95 323.14 158.30 324.98 C 157.91 327.75 156.85 330.36 156.05 333.03 C 147.87 359.24 139.70 385.44 131.53 411.65 C 131.23 413.24 129.86 415.05 128.04 414.29 C 72.48 397.88 25.29 355.46 3.12 301.95 C 2.37 300.14 4.20 298.98 5.63 298.46 C 32.83 286.73 59.99 274.91 87.21 263.23 Z" />
</g>
<g id="#ffe609ff">
<path fill="#ffe609" opacity="1.00" d=" M 324.30 275.15 C 324.72 274.97 325.56 274.60 325.98 274.41 C 355.69 276.45 385.38 279.02 415.08 281.22 C 416.70 281.21 419.30 281.69 419.05 283.88 C 415.53 341.67 384.62 396.93 337.60 430.62 C 336.19 431.74 334.36 430.95 333.59 429.51 C 315.95 405.51 298.31 381.50 280.74 357.45 C 279.20 355.95 280.15 353.72 281.84 352.85 C 305.57 335.79 321.16 308.01 323.44 278.88 C 323.66 277.63 323.49 276.21 324.30 275.15 Z" />
</g>
<g id="#20a637ff">
<path fill="#20a637" opacity="1.00" d=" M 250.42 339.53 C 251.77 338.23 253.95 338.64 254.76 340.33 C 271.38 364.99 287.94 389.70 304.51 414.39 C 305.50 415.46 305.85 417.44 304.52 418.39 C 256.83 451.53 194.03 461.67 138.30 445.41 C 136.24 444.65 136.93 442.15 137.41 440.57 C 145.37 412.09 153.06 383.53 161.10 355.08 C 161.86 352.28 165.08 353.64 167.00 354.10 C 195.18 361.64 226.39 356.00 250.42 339.53 Z" />
</g>
</svg>
