<?xml version="1.0" encoding="utf-8"?>
<!-- Generator: Adobe Illustrator 19.1.0, SVG Export Plug-In . SVG Version: 6.00 Build 0)  -->
<svg version="1.1" id="Layer_1" xmlns="http://www.w3.org/2000/svg" xmlns:xlink="http://www.w3.org/1999/xlink" x="0px" y="0px"
	 viewBox="-496 371 285.7 60" style="enable-background:new -496 371 285.7 60;" xml:space="preserve">
<g>
	<g>
		<g>
			<path fill="#E13F37" d="M-415.4,383c1.8-1,2.7-2.9,2.7-5.6c0-0.8-0.3-1.6-1-2.4c-0.6-0.8-1.8-1.2-3.5-1.2c-1.7,0-3,0.5-4,1.4
				c-1,0.9-1.5,2.1-1.5,3.6s0.2,2.6,0.6,3.5c0.7,1.6,1.9,3.2,3.7,4.7l2.5,2.2c2.2,2,3.7,3.6,4.5,4.9c1.5,2.6,2.3,5.2,2.3,7.9
				c0,5-1.7,8.8-5.2,11.5c-3.1,2.5-7,3.7-11.7,3.7c-5.8,0-9.7-1.9-11.7-5.6c-0.7-1.3-1-2.8-1-4.6c0-3.1,0.9-5.6,2.7-7.4
				s3.8-2.6,6-2.6s3.8,0.7,4.8,2c0.4,0.5,0.6,1.2,0.6,1.9c-3.1,0-5.2,1-6.4,3c-0.4,0.7-0.6,1.5-0.6,2.4c0,1.7,0.5,3.1,1.5,4.2
				s2.5,1.7,4.4,1.7c1.9,0,3.5-0.7,4.8-2.1s1.9-3.1,1.9-5.3c0-2.1-0.3-3.9-0.9-5.3s-1.4-2.7-2.3-3.9c-0.9-1.2-1.9-2.3-3-3.4
				c-1.1-1.1-2-2.2-3-3.3c-2.1-2.6-3.2-5.1-3.2-7.5c0-3.1,1.3-5.6,4-7.7c2.7-2,6-3.1,9.9-3.1c4.8,0,7.9,1.5,9.1,4.4
				c0.4,0.8,0.5,1.9,0.5,3.3s-0.4,2.7-1.3,3.9c-0.9,1.1-2,1.7-3.3,1.7S-414.6,383.9-415.4,383z"/>
			<path fill="#E13F37" d="M-391.8,413.1c-2.1,2.2-4.4,3.3-7.1,3.3c-3.6,0-6.1-1.7-7.3-5.1c-0.4-1.2-0.7-2.6-0.7-4.2s0.1-3.1,0.4-4.7
				s0.7-3.1,1.3-4.7c1.2-3.4,3-6.3,5.4-8.5c2.3-2.2,5.1-3.4,8.4-3.4c1.7,0,3,0.3,3.7,0.9c0.8,0.6,1.1,1.3,1.1,2.2v0.1l0.6-3h8.6
				l-9.1,42.8l-9.1,2.2L-391.8,413.1z M-398.1,406.2c0,2.9,1,4.4,3,4.4c0.8,0,1.7-0.4,2.6-1.1s1.6-1.8,2.1-3.2l3.2-14.8
				c-0.1-0.4-0.3-0.8-0.6-1.3c-0.3-0.5-1-0.7-2.1-0.7s-2.1,0.6-3.2,1.8c-2.5,2.9-4.1,7-4.8,12.4C-398,404.4-398.1,405.3-398.1,406.2
				z"/>
			<path fill="#E13F37" d="M-344.2,405.2c-2.5,7.4-6.6,11.1-12,11.1c-3.6,0-5.6-1.9-5.9-5.7c-2.3,3.8-5.3,5.7-8.9,5.7c-1.8,0-3.3-0.6-4.6-1.7
				c-1.2-1.1-1.8-3-1.8-5.5c0-1.1,0.2-2.4,0.5-3.9l4.1-19.2h8.6l-4.3,20.4c-0.1,0.6-0.2,1.2-0.2,1.7c0,1.6,0.6,2.5,1.8,2.5
				c2.1,0,3.7-1.8,4.8-5.3l4.1-19.2h8.6l-4.3,20.4c-0.2,0.7-0.3,1.4-0.3,2.1c0,1.4,0.8,2.1,2.5,2.1c2.2,0,3.9-1.8,4.9-5.3h2.4V405.2
				z"/>
			<path fill="#E13F37" d="M-312.6,405.2c-2.5,7.4-6.6,11.1-12,11.1c-3.5,0-5.5-1.8-5.9-5.5c-2.6,3.7-5.7,5.5-9.2,5.5s-5.9-1.7-7.1-5.1
				c-0.4-1.2-0.7-2.6-0.7-4.2s0.1-3.1,0.4-4.7c0.3-1.6,0.7-3.1,1.3-4.7c1.2-3.4,3-6.3,5.4-8.5c2.3-2.2,5.1-3.4,8.4-3.4
				c1.7,0,3,0.3,3.7,0.9c0.8,0.6,1.1,1.3,1.1,2.2v0.4l0.6-3.2h8.6l-4.3,20.4c-0.2,0.7-0.3,1.3-0.3,1.9c0,1.7,0.8,2.6,2.5,2.6
				c2.1,0,3.7-1.9,4.9-5.7H-312.6z M-327.7,391.7c0-0.4-0.2-0.8-0.5-1.4c-0.3-0.6-1.1-0.9-2.2-0.9s-2.2,0.6-3.3,1.8
				c-2.5,2.9-4.1,7-4.8,12.4c-0.1,0.8-0.1,1.7-0.1,2.6c0,1.8,0.4,3,1.1,3.7c0.4,0.4,1,0.6,1.6,0.6c1.2,0,2.3-0.5,3.3-1.4
				c1-0.9,1.7-2.2,2-3.9L-327.7,391.7z"/>
			<path fill="#E13F37" d="M-306.9,407.9c0,1.8,0.6,2.6,1.8,2.6c2.1,0,3.7-1.8,4.8-5.3l4.1-19.2h8.6l-4.3,20.4c-0.2,1-0.3,1.7-0.3,2.2
				c0,1.3,0.7,2,2.1,2c1.9,0,3.6-1.2,5.3-3.7c2.3-3.3,3.8-7.5,4.7-12.5c0.2-1.4,0.4-2.7,0.4-3.8c-0.1,0.2-0.4,0.4-0.8,0.4l-0.6,0.1
				c-0.2,0-0.3,0-0.4,0c-0.7,0-1.2-0.3-1.6-1c-0.4-0.7-0.6-1.4-0.6-2.2c0-0.8,0.3-1.5,0.9-2.1c0.6-0.6,1.4-0.9,2.4-0.9
				c1.6,0,2.7,0.5,3.3,1.5s0.9,2.3,0.9,3.8s-0.1,3.3-0.4,5.2c-0.3,1.9-0.7,3.9-1.3,5.8c-1.3,4.4-3.1,7.9-5.5,10.5
				c-2.8,3.1-6.2,4.7-10.1,4.7c-3.9,0-6.3-1.7-7-5c-2.2,3.4-5.1,5-8.5,5c-1.8,0-3.3-0.6-4.6-1.7c-1.2-1.1-1.8-3-1.8-5.5
				c0-1.1,0.2-2.4,0.5-3.9l4.1-19.2h8.6l-4.3,20.4C-306.9,406.9-306.9,407.4-306.9,407.9z"/>
			<path fill="#E13F37" d="M-241.9,405.2c-2.5,7.4-6.2,11.1-11,11.1c-2.5,0-4.4-0.6-5.7-1.8c-1.3-1.2-1.9-2.9-1.9-5.1c0-0.9,0.1-2,0.4-3.1l0.5-2.3
				c0.2-0.8,0.2-1.6,0.2-2.2c0-1.9-0.7-2.9-2.2-2.9c-1.1,0-2.6,0.7-4.4,2.2l-3.1,14.9h-8.6l8.7-40.8l8.9-1.2l-4.5,21.1l11.6-9.1h5.9
				l-12,8.3c0.7-0.2,1.4-0.3,2-0.3c2.2,0,3.9,0.7,5,2.1s1.6,3,1.6,5c0,0.7-0.1,1.5-0.2,2.3l-0.7,3c-0.2,0.8-0.3,1.5-0.3,1.9
				c0,1.5,0.8,2.2,2.4,2.2c1.6,0,2.9-1.1,4-3.2c0.3-0.6,0.6-1.4,1-2.1C-244.3,405.2-241.9,405.2-241.9,405.2z"/>
			<g>
				<path fill="#E13F37" d="M-210.3,405.2c-2.5,7.4-6.6,11.1-12,11.1c-3.5,0-5.5-1.8-5.9-5.5c-2.6,3.7-5.7,5.5-9.2,5.5s-5.9-1.7-7.1-5.1
					c-0.4-1.2-0.7-2.6-0.7-4.2s0.1-3.1,0.4-4.7c0.3-1.6,0.7-3.1,1.3-4.7c1.2-3.4,3-6.3,5.4-8.5c2.3-2.2,5.1-3.4,8.4-3.4
					c1.7,0,3,0.3,3.7,0.9c0.8,0.6,1.1,1.3,1.1,2.2v0.4l0.6-3.2h8.6l-4.3,20.4c-0.2,0.7-0.3,1.3-0.3,1.9c0,1.7,0.8,2.6,2.5,2.6
					c2.1,0,3.8-1.9,4.9-5.7H-210.3z M-225.4,391.7c0-0.4-0.2-0.8-0.5-1.4c-0.3-0.6-1.1-0.9-2.2-0.9s-2.2,0.6-3.3,1.8
					c-2.5,2.9-4.1,7-4.8,12.4c-0.1,0.8-0.1,1.7-0.1,2.6c0,1.8,0.4,3,1.1,3.7c0.4,0.4,1,0.6,1.6,0.6c1.2,0,2.3-0.5,3.3-1.4
					c1-0.9,1.7-2.2,2-3.9L-225.4,391.7z"/>
			</g>
		</g>
	</g>
	<path fill="#E13F37" d="M-474.4,389.4c-0.8-1.6-0.1-3.6,1.6-4.4c1.6-0.8,3.6-0.1,4.4,1.6c0.8,1.6,0.1,3.6-1.6,4.4
		C-471.7,391.7-473.6,391-474.4,389.4z"/>
	<path fill="#E13F37" d="M-450.7,385.7c-5.6-11.8-19.7-17-31.6-11.4c-11.9,5.5-17,19.6-11.5,31.5c5.5,11.9,19.6,17,31.5,11.5
		C-450.3,411.8-445.2,397.6-450.7,385.7z M-481.9,396.2c-3.3,1.6-5.1,5.1-4.5,8.6c0,0-0.7-1.2-1-1.9c-4-8.4-0.3-18.4,8.1-22.4
		c3.2-1.5,6.3-1.9,9.5-1.3c0.1,0,0.3,0.1,0.3,0.1c2.5,0.7,5.1,2.4,6.3,4.9c2.1,4.5,0.1,9.9-4.4,12c-2.1,1-4.5,1.1-6.6,0.4
		c-0.3-0.1-0.6-0.2-1-0.3c0,0-0.6-0.2-1.1-0.4c-0.4-0.1-0.8-0.2-1.1-0.3C-478.9,395.3-480.5,395.5-481.9,396.2z M-465.1,411
		c-2.1,1-4.4,1.5-6.6,1.6h-0.1c-2.4-0.1-4.6-1.5-5.7-3.8c-1.5-3.3-0.1-7.2,3.2-8.8c0.4-0.2,1.1-0.4,1.5-0.5c0.2,0,0.5-0.1,0.7-0.1
		c0.3,0,0.7-0.1,0.7-0.1c2.1-0.2,3.4-0.3,5-1.1c5.6-2.6,8.1-9.3,5.6-15v-0.1h0.1c1.6,1.5,2.9,3.2,3.9,5.3
		C-453.1,397.1-456.7,407.1-465.1,411z"/>
</g>
</svg>
